<svg viewBox="0 0 40 40" xmlns="http://www.w3.org/2000/svg">
<path d="M1.615 1.615C1.89358 1.33637 2.22432 1.11535 2.58833 0.96455C2.95234 0.813754 3.34249 0.736141 3.7365 0.736141C4.13051 0.736141 4.52066 0.813754 4.88467 0.96455C5.24868 1.11535 5.57942 1.33637 5.858 1.615L20 15.757L34.142 1.615C34.7047 1.05234 35.4678 0.736246 36.2635 0.736246C37.0592 0.736246 37.8223 1.05234 38.385 1.615C38.9477 2.17766 39.2638 2.94078 39.2638 3.7365C39.2638 4.53222 38.9477 5.29534 38.385 5.858L24.243 20L38.385 34.142C38.9477 34.7047 39.2638 35.4678 39.2638 36.2635C39.2638 37.0592 38.9477 37.8223 38.385 38.385C37.8223 38.9477 37.0592 39.2638 36.2635 39.2638C35.4678 39.2638 34.7047 38.9477 34.142 38.385L20 24.243L5.858 38.385C5.29534 38.9477 4.53222 39.2638 3.7365 39.2638C2.94078 39.2638 2.17766 38.9477 1.615 38.385C1.05234 37.8223 0.736246 37.0592 0.736246 36.2635C0.736246 35.4678 1.05234 34.7047 1.615 34.142L15.757 20L1.615 5.858C1.33637 5.57942 1.11535 5.24868 0.96455 4.88467C0.813754 4.52066 0.736141 4.13051 0.736141 3.7365C0.736141 3.34249 0.813754 2.95234 0.96455 2.58833C1.11535 2.22432 1.33637 1.89358 1.615 1.615V1.615Z" />
</svg>
